<mxfile host="65bd71144e">
    <diagram id="iRsTm4qjq9ecX5pp8Ma0" name="C4 Level 1">
        <mxGraphModel dx="1797" dy="786" grid="1" gridSize="10" guides="1" tooltips="1" connect="1" arrows="1" fold="1" page="0" pageScale="1" pageWidth="850" pageHeight="1100" math="0" shadow="0">
            <root>
                <mxCell id="0"/>
                <mxCell id="1" parent="0"/>
                <object placeholders="1" c4Name="User" c4Type="Person" c4Description="A user that queries ApiService." label="&lt;font style=&quot;font-size: 16px&quot;&gt;&lt;b&gt;%c4Name%&lt;/b&gt;&lt;/font&gt;&lt;div&gt;[%c4Type%]&lt;/div&gt;&lt;br&gt;&lt;div&gt;&lt;font style=&quot;font-size: 11px&quot;&gt;&lt;font&gt;%c4Description%&lt;/font&gt;&lt;/font&gt;&lt;/div&gt;" id="2">
                    <mxCell style="html=1;fontSize=11;dashed=0;whiteSpace=wrap;fillColor=#083F75;strokeColor=default;fontColor=default;shape=mxgraph.c4.person2;align=center;metaEdit=1;points=[[0.5,0,0],[1,0.5,0],[1,0.75,0],[0.75,1,0],[0.5,1,0],[0.25,1,0],[0,0.75,0],[0,0.5,0]];resizable=0;" vertex="1" parent="1">
                        <mxGeometry x="-290" y="380" width="200" height="180" as="geometry"/>
                    </mxCell>
                </object>
                <object placeholders="1" c4Name="ApiService" c4Type="Software System" c4Description="A REST API that calls a remote dependency." label="&lt;font style=&quot;font-size: 16px&quot;&gt;&lt;b&gt;%c4Name%&lt;/b&gt;&lt;/font&gt;&lt;div&gt;[%c4Type%]&lt;/div&gt;&lt;br&gt;&lt;div&gt;&lt;font style=&quot;font-size: 11px&quot;&gt;&lt;font&gt;%c4Description%&lt;/font&gt;&lt;/font&gt;&lt;/div&gt;" id="3">
                    <mxCell style="rounded=1;whiteSpace=wrap;html=1;labelBackgroundColor=none;fillColor=#1061B0;fontColor=default;align=center;arcSize=10;strokeColor=default;metaEdit=1;resizable=0;points=[[0.25,0,0],[0.5,0,0],[0.75,0,0],[1,0.25,0],[1,0.5,0],[1,0.75,0],[0.75,1,0],[0.5,1,0],[0.25,1,0],[0,0.75,0],[0,0.5,0],[0,0.25,0]];" vertex="1" parent="1">
                        <mxGeometry x="100" y="410" width="240" height="120" as="geometry"/>
                    </mxCell>
                </object>
                <object placeholders="1" c4Name="RemoteDependency" c4Type="Software System" c4Description="A REST API that wait 2 seconds befre returning a response." label="&lt;font style=&quot;font-size: 16px&quot;&gt;&lt;b&gt;%c4Name%&lt;/b&gt;&lt;/font&gt;&lt;div&gt;[%c4Type%]&lt;/div&gt;&lt;br&gt;&lt;div&gt;&lt;font style=&quot;font-size: 11px&quot;&gt;&lt;font&gt;%c4Description%&lt;/font&gt;&lt;/font&gt;&lt;/div&gt;" id="5">
                    <mxCell style="rounded=1;whiteSpace=wrap;html=1;labelBackgroundColor=none;fillColor=#8C8496;fontColor=default;align=center;arcSize=10;strokeColor=default;metaEdit=1;resizable=0;points=[[0.25,0,0],[0.5,0,0],[0.75,0,0],[1,0.25,0],[1,0.5,0],[1,0.75,0],[0.75,1,0],[0.5,1,0],[0.25,1,0],[0,0.75,0],[0,0.5,0],[0,0.25,0]];" vertex="1" parent="1">
                        <mxGeometry x="560" y="410" width="240" height="120" as="geometry"/>
                    </mxCell>
                </object>
                <object placeholders="1" c4Type="Relationship" c4Technology="JSON/HTTP" c4Description="Makes API calls" label="&lt;div style=&quot;text-align: left&quot;&gt;&lt;div style=&quot;text-align: center&quot;&gt;&lt;b&gt;%c4Description%&lt;/b&gt;&lt;/div&gt;&lt;div style=&quot;text-align: center&quot;&gt;[%c4Technology%]&lt;/div&gt;&lt;/div&gt;" id="7">
                    <mxCell style="endArrow=blockThin;html=1;fontSize=10;fontColor=default;strokeWidth=2;endFill=1;strokeColor=default;elbow=vertical;metaEdit=1;endSize=14;startSize=14;jumpStyle=arc;jumpSize=16;rounded=0;edgeStyle=orthogonalEdgeStyle;labelBackgroundColor=default;dashed=1;dashPattern=12 12;" edge="1" parent="1" source="3" target="5">
                        <mxGeometry width="240" relative="1" as="geometry">
                            <mxPoint x="370" y="710" as="sourcePoint"/>
                            <mxPoint x="610" y="710" as="targetPoint"/>
                        </mxGeometry>
                    </mxCell>
                </object>
                <object placeholders="1" c4Type="Relationship" c4Technology="JSON/HTTP" c4Description="Makes API calls" label="&lt;div style=&quot;text-align: left&quot;&gt;&lt;div style=&quot;text-align: center&quot;&gt;&lt;b&gt;%c4Description%&lt;/b&gt;&lt;/div&gt;&lt;div style=&quot;text-align: center&quot;&gt;[%c4Technology%]&lt;/div&gt;&lt;/div&gt;" id="8">
                    <mxCell style="endArrow=blockThin;html=1;fontSize=10;fontColor=default;strokeWidth=2;endFill=1;strokeColor=default;elbow=vertical;metaEdit=1;endSize=14;startSize=14;jumpStyle=arc;jumpSize=16;rounded=0;edgeStyle=orthogonalEdgeStyle;labelBackgroundColor=default;dashed=1;dashPattern=12 12;" edge="1" parent="1" source="2" target="3">
                        <mxGeometry width="240" relative="1" as="geometry">
                            <mxPoint x="90" y="620" as="sourcePoint"/>
                            <mxPoint x="330" y="620" as="targetPoint"/>
                            <mxPoint as="offset"/>
                        </mxGeometry>
                    </mxCell>
                </object>
            </root>
        </mxGraphModel>
    </diagram>
    <diagram id="ocSBc_sLk-zvHnCR9WJI" name="Sequences">
        <mxGraphModel dx="1391" dy="456" grid="0" gridSize="10" guides="1" tooltips="1" connect="1" arrows="1" fold="1" page="0" pageScale="1" pageWidth="850" pageHeight="1100" math="0" shadow="0">
            <root>
                <mxCell id="0"/>
                <mxCell id="1" parent="0"/>
                <mxCell id="EvyhqSGxHsrF_93JVmIK-1" value="" style="shape=umlLifeline;participant=umlActor;perimeter=lifelinePerimeter;whiteSpace=wrap;html=1;container=1;collapsible=0;recursiveResize=0;verticalAlign=top;spacingTop=36;outlineConnect=0;strokeColor=default;fontColor=default;fillColor=default;" vertex="1" parent="1">
                    <mxGeometry x="-250" y="120" width="20" height="440" as="geometry"/>
                </mxCell>
                <mxCell id="8qyXw-beubvI-tatJLio-5" value="" style="html=1;points=[];perimeter=orthogonalPerimeter;strokeColor=default;fontColor=default;fillColor=default;" vertex="1" parent="EvyhqSGxHsrF_93JVmIK-1">
                    <mxGeometry x="5" y="70" width="10" height="360" as="geometry"/>
                </mxCell>
                <mxCell id="EvyhqSGxHsrF_93JVmIK-2" value="ApiService" style="shape=umlLifeline;perimeter=lifelinePerimeter;whiteSpace=wrap;html=1;container=1;collapsible=0;recursiveResize=0;outlineConnect=0;strokeColor=default;fontColor=default;fillColor=default;" vertex="1" parent="1">
                    <mxGeometry x="-120" y="120" width="120" height="440" as="geometry"/>
                </mxCell>
                <mxCell id="8qyXw-beubvI-tatJLio-2" value="" style="html=1;points=[];perimeter=orthogonalPerimeter;strokeColor=default;fontColor=default;fillColor=default;" vertex="1" parent="EvyhqSGxHsrF_93JVmIK-2">
                    <mxGeometry x="55" y="80" width="10" height="340" as="geometry"/>
                </mxCell>
                <mxCell id="8qyXw-beubvI-tatJLio-1" value="RemoteDependency" style="shape=umlLifeline;perimeter=lifelinePerimeter;whiteSpace=wrap;html=1;container=1;collapsible=0;recursiveResize=0;outlineConnect=0;strokeColor=default;fontColor=default;fillColor=default;" vertex="1" parent="1">
                    <mxGeometry x="120" y="120" width="120" height="440" as="geometry"/>
                </mxCell>
                <mxCell id="8qyXw-beubvI-tatJLio-6" value="" style="html=1;points=[];perimeter=orthogonalPerimeter;strokeColor=default;fontColor=default;fillColor=default;" vertex="1" parent="8qyXw-beubvI-tatJLio-1">
                    <mxGeometry x="55" y="130" width="10" height="50" as="geometry"/>
                </mxCell>
                <mxCell id="8qyXw-beubvI-tatJLio-12" value="" style="html=1;points=[];perimeter=orthogonalPerimeter;strokeColor=default;fontColor=default;fillColor=default;" vertex="1" parent="8qyXw-beubvI-tatJLio-1">
                    <mxGeometry x="55" y="220" width="10" height="50" as="geometry"/>
                </mxCell>
                <mxCell id="8qyXw-beubvI-tatJLio-13" value="4) GET&amp;nbsp; /Build.Ship.Learn.Repeat" style="html=1;verticalAlign=bottom;endArrow=block;entryX=0;entryY=0;labelBackgroundColor=default;strokeColor=default;strokeWidth=1;fontColor=default;" edge="1" parent="8qyXw-beubvI-tatJLio-1" target="8qyXw-beubvI-tatJLio-12">
                    <mxGeometry relative="1" as="geometry">
                        <mxPoint x="-174.99999999999977" y="220" as="sourcePoint"/>
                    </mxGeometry>
                </mxCell>
                <mxCell id="8qyXw-beubvI-tatJLio-14" value="5) return dto" style="html=1;verticalAlign=bottom;endArrow=open;endSize=8;exitX=0;exitY=0.95;labelBackgroundColor=default;strokeColor=default;strokeWidth=1;fontColor=default;" edge="1" parent="8qyXw-beubvI-tatJLio-1" source="8qyXw-beubvI-tatJLio-12">
                    <mxGeometry relative="1" as="geometry">
                        <mxPoint x="-174.99999999999977" y="267.5" as="targetPoint"/>
                    </mxGeometry>
                </mxCell>
                <mxCell id="8qyXw-beubvI-tatJLio-15" value="" style="html=1;points=[];perimeter=orthogonalPerimeter;strokeColor=default;fontColor=default;fillColor=default;" vertex="1" parent="8qyXw-beubvI-tatJLio-1">
                    <mxGeometry x="55" y="310" width="10" height="50" as="geometry"/>
                </mxCell>
                <mxCell id="8qyXw-beubvI-tatJLio-16" value="6) GET&amp;nbsp; /Value.Over.Hype" style="html=1;verticalAlign=bottom;endArrow=block;entryX=0;entryY=0;labelBackgroundColor=default;strokeColor=default;strokeWidth=1;fontColor=default;" edge="1" parent="8qyXw-beubvI-tatJLio-1" target="8qyXw-beubvI-tatJLio-15">
                    <mxGeometry relative="1" as="geometry">
                        <mxPoint x="-174.99999999999977" y="310" as="sourcePoint"/>
                    </mxGeometry>
                </mxCell>
                <mxCell id="8qyXw-beubvI-tatJLio-17" value="7) return dto" style="html=1;verticalAlign=bottom;endArrow=open;endSize=8;exitX=0;exitY=0.95;labelBackgroundColor=default;strokeColor=default;strokeWidth=1;fontColor=default;" edge="1" parent="8qyXw-beubvI-tatJLio-1" source="8qyXw-beubvI-tatJLio-15">
                    <mxGeometry relative="1" as="geometry">
                        <mxPoint x="-174.99999999999977" y="357.5" as="targetPoint"/>
                    </mxGeometry>
                </mxCell>
                <mxCell id="8qyXw-beubvI-tatJLio-3" value="1) GET&amp;nbsp; /sequential" style="html=1;verticalAlign=bottom;endArrow=block;entryX=0;entryY=0;labelBackgroundColor=default;strokeColor=default;strokeWidth=1;fontColor=default;" edge="1" target="8qyXw-beubvI-tatJLio-2" parent="1" source="8qyXw-beubvI-tatJLio-5">
                    <mxGeometry relative="1" as="geometry">
                        <mxPoint x="-135" y="200" as="sourcePoint"/>
                    </mxGeometry>
                </mxCell>
                <mxCell id="8qyXw-beubvI-tatJLio-4" value="8) return result" style="html=1;verticalAlign=bottom;endArrow=open;endSize=8;exitX=0;exitY=0.95;labelBackgroundColor=default;strokeColor=default;strokeWidth=1;fontColor=default;" edge="1" source="8qyXw-beubvI-tatJLio-2" parent="1" target="8qyXw-beubvI-tatJLio-5">
                    <mxGeometry relative="1" as="geometry">
                        <mxPoint x="-135" y="276" as="targetPoint"/>
                    </mxGeometry>
                </mxCell>
                <mxCell id="8qyXw-beubvI-tatJLio-7" value="2) GET&amp;nbsp; /Growth.Mindset" style="html=1;verticalAlign=bottom;endArrow=block;entryX=0;entryY=0;labelBackgroundColor=default;strokeColor=default;strokeWidth=1;fontColor=default;" edge="1" target="8qyXw-beubvI-tatJLio-6" parent="1" source="8qyXw-beubvI-tatJLio-2">
                    <mxGeometry relative="1" as="geometry">
                        <mxPoint x="105" y="210" as="sourcePoint"/>
                    </mxGeometry>
                </mxCell>
                <mxCell id="8qyXw-beubvI-tatJLio-8" value="3) return dto" style="html=1;verticalAlign=bottom;endArrow=open;endSize=8;exitX=0;exitY=0.95;labelBackgroundColor=default;strokeColor=default;strokeWidth=1;fontColor=default;" edge="1" source="8qyXw-beubvI-tatJLio-6" parent="1" target="8qyXw-beubvI-tatJLio-2">
                    <mxGeometry relative="1" as="geometry">
                        <mxPoint x="105" y="286" as="targetPoint"/>
                    </mxGeometry>
                </mxCell>
                <mxCell id="8qyXw-beubvI-tatJLio-18" value="" style="shape=umlLifeline;participant=umlActor;perimeter=lifelinePerimeter;whiteSpace=wrap;html=1;container=1;collapsible=0;recursiveResize=0;verticalAlign=top;spacingTop=36;outlineConnect=0;strokeColor=default;fontColor=default;fillColor=default;" vertex="1" parent="1">
                    <mxGeometry x="-250" y="640" width="20" height="480" as="geometry"/>
                </mxCell>
                <mxCell id="8qyXw-beubvI-tatJLio-19" value="" style="html=1;points=[];perimeter=orthogonalPerimeter;strokeColor=default;fontColor=default;fillColor=default;" vertex="1" parent="8qyXw-beubvI-tatJLio-18">
                    <mxGeometry x="5" y="70" width="10" height="400" as="geometry"/>
                </mxCell>
                <mxCell id="8qyXw-beubvI-tatJLio-20" value="ApiService" style="shape=umlLifeline;perimeter=lifelinePerimeter;whiteSpace=wrap;html=1;container=1;collapsible=0;recursiveResize=0;outlineConnect=0;strokeColor=default;fontColor=default;fillColor=default;" vertex="1" parent="1">
                    <mxGeometry x="-120" y="640" width="120" height="480" as="geometry"/>
                </mxCell>
                <mxCell id="8qyXw-beubvI-tatJLio-21" value="" style="html=1;points=[];perimeter=orthogonalPerimeter;strokeColor=default;fontColor=default;fillColor=default;" vertex="1" parent="8qyXw-beubvI-tatJLio-20">
                    <mxGeometry x="55" y="80" width="10" height="380" as="geometry"/>
                </mxCell>
                <mxCell id="8qyXw-beubvI-tatJLio-22" value="RemoteDependency" style="shape=umlLifeline;perimeter=lifelinePerimeter;whiteSpace=wrap;html=1;container=1;collapsible=0;recursiveResize=0;outlineConnect=0;strokeColor=default;fontColor=default;fillColor=default;" vertex="1" parent="1">
                    <mxGeometry x="120" y="640" width="120" height="480" as="geometry"/>
                </mxCell>
                <mxCell id="8qyXw-beubvI-tatJLio-23" value="" style="html=1;points=[];perimeter=orthogonalPerimeter;strokeColor=default;fontColor=default;fillColor=default;" vertex="1" parent="8qyXw-beubvI-tatJLio-22">
                    <mxGeometry x="55" y="140" width="10" height="50" as="geometry"/>
                </mxCell>
                <mxCell id="8qyXw-beubvI-tatJLio-24" value="" style="html=1;points=[];perimeter=orthogonalPerimeter;strokeColor=default;fontColor=default;fillColor=default;" vertex="1" parent="8qyXw-beubvI-tatJLio-22">
                    <mxGeometry x="55" y="230" width="10" height="50" as="geometry"/>
                </mxCell>
                <mxCell id="8qyXw-beubvI-tatJLio-25" value="GET&amp;nbsp; /Build.Ship.Learn.Repeat" style="html=1;verticalAlign=bottom;endArrow=block;entryX=0;entryY=0;labelBackgroundColor=default;strokeColor=default;strokeWidth=1;fontColor=default;" edge="1" parent="8qyXw-beubvI-tatJLio-22" target="8qyXw-beubvI-tatJLio-24">
                    <mxGeometry relative="1" as="geometry">
                        <mxPoint x="-174.99999999999977" y="230" as="sourcePoint"/>
                    </mxGeometry>
                </mxCell>
                <mxCell id="8qyXw-beubvI-tatJLio-26" value="return dto" style="html=1;verticalAlign=bottom;endArrow=open;endSize=8;exitX=0;exitY=0.95;labelBackgroundColor=default;strokeColor=default;strokeWidth=1;fontColor=default;" edge="1" parent="8qyXw-beubvI-tatJLio-22" source="8qyXw-beubvI-tatJLio-24">
                    <mxGeometry relative="1" as="geometry">
                        <mxPoint x="-174.99999999999977" y="277.5" as="targetPoint"/>
                    </mxGeometry>
                </mxCell>
                <mxCell id="8qyXw-beubvI-tatJLio-27" value="" style="html=1;points=[];perimeter=orthogonalPerimeter;strokeColor=default;fontColor=default;fillColor=default;" vertex="1" parent="8qyXw-beubvI-tatJLio-22">
                    <mxGeometry x="55" y="320" width="10" height="50" as="geometry"/>
                </mxCell>
                <mxCell id="8qyXw-beubvI-tatJLio-28" value="GET&amp;nbsp; /Value.Over.Hype" style="html=1;verticalAlign=bottom;endArrow=block;entryX=0;entryY=0;labelBackgroundColor=default;strokeColor=default;strokeWidth=1;fontColor=default;" edge="1" parent="8qyXw-beubvI-tatJLio-22" target="8qyXw-beubvI-tatJLio-27">
                    <mxGeometry relative="1" as="geometry">
                        <mxPoint x="-174.99999999999977" y="320" as="sourcePoint"/>
                    </mxGeometry>
                </mxCell>
                <mxCell id="8qyXw-beubvI-tatJLio-29" value="return dto" style="html=1;verticalAlign=bottom;endArrow=open;endSize=8;exitX=0;exitY=0.95;labelBackgroundColor=default;strokeColor=default;strokeWidth=1;fontColor=default;" edge="1" parent="8qyXw-beubvI-tatJLio-22" source="8qyXw-beubvI-tatJLio-27">
                    <mxGeometry relative="1" as="geometry">
                        <mxPoint x="-174.99999999999977" y="367.5" as="targetPoint"/>
                    </mxGeometry>
                </mxCell>
                <mxCell id="8qyXw-beubvI-tatJLio-30" value="1) GET&amp;nbsp; /parallel" style="html=1;verticalAlign=bottom;endArrow=block;entryX=0;entryY=0;labelBackgroundColor=default;strokeColor=default;strokeWidth=1;fontColor=default;" edge="1" parent="1" source="8qyXw-beubvI-tatJLio-19" target="8qyXw-beubvI-tatJLio-21">
                    <mxGeometry relative="1" as="geometry">
                        <mxPoint x="-135" y="720" as="sourcePoint"/>
                    </mxGeometry>
                </mxCell>
                <mxCell id="8qyXw-beubvI-tatJLio-31" value="3) return result" style="html=1;verticalAlign=bottom;endArrow=open;endSize=8;exitX=0;exitY=0.95;labelBackgroundColor=default;strokeColor=default;strokeWidth=1;fontColor=default;" edge="1" parent="1" source="8qyXw-beubvI-tatJLio-21" target="8qyXw-beubvI-tatJLio-19">
                    <mxGeometry relative="1" as="geometry">
                        <mxPoint x="-135" y="796" as="targetPoint"/>
                    </mxGeometry>
                </mxCell>
                <mxCell id="8qyXw-beubvI-tatJLio-32" value="GET&amp;nbsp; /Growth.Mindset" style="html=1;verticalAlign=bottom;endArrow=block;entryX=0;entryY=0;labelBackgroundColor=default;strokeColor=default;strokeWidth=1;fontColor=default;" edge="1" parent="1" target="8qyXw-beubvI-tatJLio-23">
                    <mxGeometry relative="1" as="geometry">
                        <mxPoint x="-54.99999999999977" y="780" as="sourcePoint"/>
                    </mxGeometry>
                </mxCell>
                <mxCell id="8qyXw-beubvI-tatJLio-33" value="return dto" style="html=1;verticalAlign=bottom;endArrow=open;endSize=8;exitX=0;exitY=0.95;labelBackgroundColor=default;strokeColor=default;strokeWidth=1;fontColor=default;" edge="1" parent="1" source="8qyXw-beubvI-tatJLio-23">
                    <mxGeometry relative="1" as="geometry">
                        <mxPoint x="-54.99999999999977" y="827.5" as="targetPoint"/>
                    </mxGeometry>
                </mxCell>
                <mxCell id="8qyXw-beubvI-tatJLio-34" value="2) Parallel.ForEach" style="shape=umlFrame;whiteSpace=wrap;html=1;strokeColor=default;fontColor=default;fillColor=default;width=120;height=30;" vertex="1" parent="1">
                    <mxGeometry x="-200" y="740" width="430" height="300" as="geometry"/>
                </mxCell>
                <mxCell id="8qyXw-beubvI-tatJLio-35" value="foreach" style="shape=umlFrame;whiteSpace=wrap;html=1;strokeColor=default;fontColor=default;fillColor=default;width=80;height=30;" vertex="1" parent="1">
                    <mxGeometry x="-200" y="220" width="430" height="280" as="geometry"/>
                </mxCell>
            </root>
        </mxGraphModel>
    </diagram>
</mxfile>